<?xml version="1.0" standalone="no"?>
<!DOCTYPE svg PUBLIC "-//W3C//DTD SVG 20010904//EN"
 "http://www.w3.org/TR/2001/REC-SVG-20010904/DTD/svg10.dtd">
<svg version="1.0" xmlns="http://www.w3.org/2000/svg"
 width="1544.000000pt" height="1544.000000pt" viewBox="0 0 1544.000000 1544.000000"
 preserveAspectRatio="xMidYMid meet">
<metadata>
Created by potrace 1.14, written by Peter Selinger 2001-2017
</metadata>
<g transform="translate(0.000000,1544.000000) scale(0.100000,-0.100000)"
fill="#000000" stroke="none">
<path d="M6462 14905 c-29 -13 -56 -25 -60 -27 -4 -1 -16 -10 -27 -19 -11 -10
-39 -33 -62 -52 -23 -19 -39 -37 -36 -41 3 -3 -2 -8 -11 -12 -9 -3 -13 -10
-10 -15 3 -5 1 -9 -3 -9 -16 0 -35 -72 -38 -140 -1 -37 -5 -72 -8 -77 -4 -6
-9 -28 -12 -49 -3 -22 -7 -48 -9 -59 -22 -110 -26 -280 -10 -356 26 -113 74
-156 161 -144 26 3 50 8 53 10 4 2 20 7 36 9 27 5 41 8 104 21 86 18 252 24
354 12 73 -9 234 -63 262 -88 11 -10 26 -19 32 -19 13 0 153 -137 185 -180 41
-56 137 -281 137 -319 0 -11 7 -26 15 -35 8 -8 15 -24 15 -35 0 -11 7 -48 15
-83 8 -35 18 -108 23 -163 9 -95 12 -839 4 -955 l-4 -56 -55 -20 -56 -20 -141
71 c-121 61 -310 132 -396 150 -106 22 -171 34 -205 39 -22 4 -58 12 -80 18
-22 6 -47 12 -55 13 -8 1 -42 7 -75 14 -143 27 -269 36 -490 36 -264 -1 -298
-4 -575 -60 -14 -3 -36 -8 -50 -11 -14 -3 -36 -8 -49 -10 -34 -7 -190 -60
-293 -100 -54 -21 -105 -34 -133 -34 -38 0 -313 -31 -395 -45 -186 -31 -462
-89 -482 -101 -7 -5 -15 -7 -70 -19 -32 -7 -311 -96 -323 -104 -5 -3 -14 -6
-20 -7 -19 -4 -200 -76 -263 -105 -35 -16 -65 -29 -68 -29 -15 0 -314 -154
-314 -162 0 -5 -4 -7 -8 -4 -4 2 -32 -11 -62 -30 -30 -18 -58 -34 -62 -34 -9
0 -101 -62 -109 -73 -3 -5 -8 -7 -11 -5 -10 8 -398 -264 -450 -315 -9 -9 -20
-17 -24 -17 -4 0 -19 -12 -33 -27 -15 -16 -31 -30 -36 -31 -18 -7 -222 -192
-339 -308 -66 -66 -188 -196 -271 -289 -38 -43 -151 -225 -147 -238 1 -4 -5
-10 -13 -13 -8 -4 -15 -10 -15 -15 0 -5 -21 -43 -46 -86 -88 -147 -272 -495
-275 -518 0 -2 -16 -36 -35 -75 -19 -39 -34 -72 -34 -74 0 -2 -8 -21 -17 -42
-9 -22 -17 -41 -18 -44 -1 -3 -9 -22 -18 -44 -20 -46 -107 -285 -112 -306 -2
-8 -8 -28 -14 -43 -6 -16 -29 -88 -50 -160 -49 -166 -55 -187 -57 -212 -2 -11
-14 -63 -27 -115 -23 -90 -46 -191 -53 -235 -2 -11 -12 -67 -23 -125 -11 -58
-22 -123 -25 -145 -3 -22 -12 -85 -20 -140 -8 -55 -17 -127 -21 -160 -4 -33
-8 -73 -10 -90 -2 -16 -7 -68 -10 -115 -4 -47 -8 -103 -11 -125 -26 -251 -26
-1134 1 -1430 2 -27 7 -81 9 -120 3 -38 7 -79 10 -90 2 -11 7 -47 11 -80 9
-81 12 -107 25 -195 6 -41 13 -88 15 -105 4 -33 11 -79 26 -170 6 -33 11 -67
11 -75 0 -8 4 -31 8 -50 5 -19 12 -55 15 -80 3 -25 8 -52 10 -60 2 -8 7 -28
10 -45 6 -35 11 -60 26 -132 5 -29 11 -56 11 -60 0 -5 4 -18 9 -31 5 -13 11
-37 14 -55 15 -93 160 -592 183 -632 4 -5 7 -15 8 -21 4 -28 49 -140 58 -146
6 -4 8 -8 4 -8 -14 0 157 -390 175 -398 4 -2 5 -7 2 -12 -3 -5 2 -16 11 -24 8
-9 13 -16 10 -16 -3 0 3 -15 13 -32 48 -88 81 -146 97 -178 11 -19 22 -37 25
-40 3 -3 16 -24 29 -47 13 -24 27 -43 32 -43 4 0 7 -4 6 -9 -2 -5 31 -57 72
-116 41 -59 80 -115 85 -123 14 -21 47 -62 68 -84 9 -10 14 -18 10 -18 -3 0 3
-8 13 -17 11 -10 31 -34 45 -53 15 -19 52 -62 83 -95 31 -32 56 -63 56 -68 0
-4 4 -5 10 -2 5 3 10 1 10 -6 0 -6 29 -39 63 -73 142 -137 337 -305 337 -290
0 3 9 -4 20 -17 10 -13 19 -21 20 -16 0 4 14 -6 31 -23 18 -16 38 -30 45 -30
7 0 14 -4 16 -8 3 -9 123 -92 132 -92 3 0 15 -8 26 -18 11 -9 23 -15 27 -14 3
2 9 0 12 -5 8 -11 93 -61 105 -61 5 0 12 -4 15 -9 9 -13 111 -65 111 -57 0 4
8 0 17 -8 20 -17 54 -32 66 -30 4 1 7 -3 7 -8 0 -6 5 -10 11 -10 6 0 34 -12
63 -26 28 -14 51 -25 51 -24 0 2 27 -9 105 -40 86 -35 280 -99 280 -93 0 3 7
0 15 -7 8 -6 19 -9 25 -5 5 3 10 1 10 -6 0 -7 3 -9 6 -6 4 3 14 2 24 -3 9 -5
28 -11 41 -14 13 -3 35 -8 49 -11 14 -4 34 -8 45 -10 11 -3 38 -9 60 -15 22
-6 47 -13 55 -14 8 -2 40 -8 70 -14 30 -6 71 -14 90 -17 19 -4 54 -10 77 -16
24 -5 46 -8 50 -7 7 1 68 -7 128 -18 10 -2 51 -6 90 -10 38 -3 78 -8 87 -9 16
-3 159 -13 293 -20 54 -2 127 5 209 20 16 3 45 13 65 22 20 9 42 17 48 19 7 1
25 11 39 22 l27 19 101 -45 c55 -25 106 -45 113 -45 7 0 13 -4 13 -9 0 -4 3
-7 8 -6 4 1 25 -6 46 -15 21 -10 57 -24 80 -31 23 -8 78 -28 124 -45 45 -16
82 -27 82 -24 0 3 6 1 13 -5 11 -10 121 -46 142 -47 6 0 15 -3 20 -7 9 -5 139
-43 220 -63 17 -5 35 -9 40 -11 72 -19 249 -63 254 -62 3 1 25 -4 49 -11 24
-7 59 -14 77 -15 18 -2 37 -6 42 -9 28 -17 437 -27 713 -17 62 2 103 0 118 -8
12 -7 22 -10 22 -6 0 3 6 1 14 -5 7 -6 26 -12 42 -14 16 -2 36 -6 44 -10 36
-14 221 -48 335 -61 22 -3 58 -8 80 -11 22 -3 96 -8 165 -11 69 -3 141 -7 160
-8 40 -2 141 10 230 28 41 9 124 27 135 31 6 1 12 3 15 3 14 2 202 72 244 91
27 11 52 21 57 21 14 0 10 -17 -7 -35 -21 -21 -10 -32 41 -40 22 -3 63 -10 90
-15 28 -5 142 -7 255 -6 200 3 226 6 587 63 18 2 97 20 175 39 79 19 154 36
168 39 20 4 111 27 190 50 8 2 42 12 75 21 33 9 65 20 71 25 6 5 13 7 16 4 4
-4 142 39 198 62 8 3 22 7 31 9 9 2 29 9 45 15 16 7 34 13 39 15 13 3 193 71
220 83 114 50 138 56 285 66 83 5 241 27 365 49 44 8 95 17 114 21 19 3 38 8
43 11 5 3 24 8 41 11 38 5 229 59 272 76 17 6 35 12 40 13 23 3 246 95 338
138 54 25 102 46 108 46 5 0 9 3 9 8 0 4 15 14 33 21 46 21 151 83 159 96 4 5
8 6 8 2 0 -4 6 -3 13 3 6 5 57 40 112 76 55 37 129 90 165 118 36 28 70 54 75
59 129 99 409 385 548 560 27 34 57 71 66 82 10 12 20 29 24 38 3 9 11 17 17
17 5 0 10 4 10 10 0 5 18 33 39 61 22 29 45 64 53 78 7 14 15 28 18 31 15 15
170 266 170 275 0 3 11 23 25 45 14 22 25 46 25 54 0 8 4 16 9 18 11 4 184
357 184 376 0 6 4 12 9 12 4 0 8 6 8 13 0 8 15 49 34 93 37 87 48 115 51 127
2 4 4 9 5 12 1 3 3 8 5 13 1 4 7 19 13 34 26 64 145 425 177 542 32 115 101
388 111 441 2 11 17 85 33 165 16 80 32 161 35 180 3 19 12 76 20 125 8 50 17
110 21 135 3 25 7 56 9 70 9 53 16 118 21 180 3 36 7 74 10 85 25 117 25 1164
0 1294 -2 11 -7 55 -10 98 -4 43 -9 81 -10 84 -2 3 -7 37 -10 75 -3 38 -8 76
-10 84 -2 8 -7 38 -11 65 -3 28 -8 59 -10 70 -3 11 -7 40 -10 65 -3 25 -7 52
-9 60 -3 8 -7 33 -10 55 -22 144 -117 582 -166 765 -5 19 -12 44 -14 54 -2 10
-9 34 -15 52 -6 18 -13 45 -16 60 -3 15 -8 32 -12 38 -3 6 -7 17 -8 24 -1 7
-19 65 -40 130 -21 64 -38 122 -40 127 -1 6 -8 24 -15 40 -6 17 -13 35 -15 42
-10 51 -146 385 -218 537 -31 65 -56 122 -56 126 0 4 -6 13 -14 19 -8 7 -17
22 -20 35 -7 28 -106 209 -120 218 -6 4 -8 8 -4 8 9 0 -142 244 -153 248 -5 2
-9 8 -9 13 0 8 -74 119 -102 154 -5 6 -25 33 -45 60 -51 68 -65 85 -85 104
-10 8 -18 20 -18 26 0 6 -8 18 -17 26 -10 9 -38 40 -63 70 -84 100 -354 362
-439 426 -13 10 -31 26 -39 36 -9 9 -21 17 -26 17 -5 0 -16 8 -25 18 -24 26
-88 72 -100 72 -6 0 -11 4 -11 10 0 5 -15 17 -32 26 -18 9 -35 20 -38 23 -3 3
-25 19 -50 35 -25 16 -57 37 -72 48 -15 10 -29 18 -32 18 -2 0 -34 18 -70 40
-84 51 -278 147 -381 188 -44 17 -93 37 -110 43 -16 7 -32 13 -35 14 -3 1 -12
4 -20 8 -15 5 -116 39 -135 44 -5 1 -57 16 -115 33 -58 17 -114 33 -125 35
-11 2 -31 6 -45 9 -59 13 -76 17 -100 22 -49 10 -76 14 -110 19 -46 7 -90 14
-116 19 -11 2 -60 7 -109 11 -49 4 -105 9 -125 11 -19 2 -107 4 -195 5 -151 1
-162 2 -225 29 -120 52 -319 122 -384 134 -6 2 -38 8 -71 15 -33 8 -67 15 -75
16 -8 2 -15 4 -15 5 0 2 -36 9 -80 14 -22 3 -65 9 -95 13 -71 10 -386 10 -470
0 -69 -9 -190 -31 -255 -49 -22 -6 -47 -12 -55 -13 -8 -2 -16 -4 -17 -5 -2 -2
-7 -4 -13 -5 -5 -1 -11 -3 -12 -4 -2 -2 -12 -4 -23 -6 -39 -8 -206 -84 -294
-134 -48 -28 -93 -51 -98 -51 -8 0 -33 73 -48 140 -6 23 -20 76 -37 135 -11
38 -22 79 -24 92 -2 12 -9 34 -14 48 -5 14 -7 25 -4 25 4 0 1 7 -6 15 -7 8
-10 15 -7 15 3 0 -3 29 -13 65 -10 36 -17 65 -15 65 3 0 0 12 -6 28 -11 27
-16 46 -25 92 -3 14 -10 43 -16 65 -13 45 -14 50 -21 85 -3 14 -17 70 -32 125
-15 55 -28 108 -30 117 -2 9 -9 26 -15 37 -6 12 -9 21 -6 21 3 0 -6 33 -20 73
-14 39 -27 79 -29 87 -5 20 -58 165 -78 213 -9 20 -14 37 -11 37 3 0 -2 10
-10 22 -9 12 -16 28 -16 35 0 19 -182 400 -223 468 -7 10 -23 37 -37 60 -13
22 -23 43 -22 48 1 4 -3 7 -8 7 -6 0 -10 7 -10 15 0 8 -4 15 -10 15 -5 0 -10
5 -10 10 0 12 -97 150 -116 166 -8 6 -12 13 -10 15 2 2 -21 27 -50 56 -30 29
-54 51 -54 48 0 -2 -15 9 -32 26 -18 16 -36 29 -41 29 -4 0 -17 8 -28 18 -10
11 -32 25 -47 33 -15 7 -55 31 -89 51 -35 21 -63 35 -63 31 0 -3 -8 1 -18 10
-10 10 -22 14 -25 10 -4 -3 -7 0 -7 7 0 7 -3 11 -6 8 -3 -4 -32 7 -64 23 -32
16 -62 29 -66 29 -4 0 -37 12 -73 26 -36 15 -70 27 -76 28 -5 1 -16 5 -22 9
-7 5 -13 6 -13 3 0 -3 -12 -1 -27 5 -34 13 -40 15 -123 33 -108 24 -130 27
-250 31 -106 5 -119 3 -168 -20z"/>
</g>
</svg>
